<?xml version="1.0" encoding="UTF-8" standalone="no"?>
<!-- Created with Inkscape (http://www.inkscape.org/) -->

<svg
   width="120"
   height="120"
   viewBox="0 0 120 120"
   version="1.1"
   id="svg1"
   xmlns="http://www.w3.org/2000/svg"
   xmlns:svg="http://www.w3.org/2000/svg">
  <defs
     id="defs1" />
  <g
     id="layer1">
    <path
       d="M 15.724258,1.4754118 C 11.797379,1.4755726 8.2415417,3.0641799 5.6642474,5.6337338 3.0767628,8.2134476 1.4755735,11.781881 1.4754118,15.724299 c -2.596e-4,5.851349 3.5766107,11.108106 9.0195952,13.255672 -1.1475972,1.683148 -1.7910428,3.654788 -1.8557894,5.686492 -0.080988,2.551903 0.7552208,5.04964 2.3591184,7.046638 -4.7630264,2.894777 -7.801237,8.335087 -7.9918023,14.310362 -0.2226805,6.979851 3.4693622,13.366538 9.2943123,16.077785 -1.515145,2.582673 -2.3671157,5.566241 -2.464779,8.631557 -0.1098981,3.44303 0.736617,6.834458 2.426357,9.720826 C 6.0865678,92.000843 1.6864859,97.457243 1.4830963,103.82073 L 1.5,118.5 h 117 l 0.0169,-13.77059 c 0.18689,-5.870225 -3.24703,-11.253771 -8.64882,-13.559205 1.20352,-1.710403 1.87967,-3.731525 1.94608,-5.817126 0.0815,-2.551667 -0.75399,-5.049378 -2.3572,-7.046639 4.76177,-2.894968 7.79911,-8.334296 7.98989,-14.308442 0.2142,-6.982407 -3.48815,-13.365189 -9.31929,-16.066258 1.52604,-2.583741 2.3868,-5.572471 2.48975,-8.645003 0.11113,-3.487793 -0.75918,-6.921425 -2.49168,-9.83033 6.14896,-1.725776 10.39864,-7.332092 10.39896,-13.718661 C 118.52426,7.8684361 112.14502,1.4891806 104.27574,1.4888596 99.099701,1.4884178 94.330469,4.2948089 91.817361,8.8198227 89.905981,7.2695499 87.526049,6.4242682 85.072357,6.4241962 82.519242,6.4244307 80.049438,7.3396293 78.104504,9.0061705 75.059081,4.3380556 69.524586,1.4751264 63.54636,1.4754118 56.562983,1.4759234 50.297652,5.3702073 47.774076,11.278846 45.144395,9.8460886 42.134909,9.0890664 39.067622,9.0887784 35.622879,9.0889423 32.260283,10.043368 29.429432,11.824441 27.686472,5.7000678 22.091804,1.4754299 15.724258,1.4754118 Z"
       style="fill:#fd0000;fill-opacity:1;stroke:#ff0000;stroke-width:2.951;stroke-dasharray:none;stroke-opacity:1"
       id="path4" />
  </g>
</svg>
