<?xml version="1.0" encoding="UTF-8" standalone="no"?>
<!-- Created with Inkscape (http://www.inkscape.org/) -->

<svg
   width="120"
   height="120"
   viewBox="0 0 120 120"
   version="1.1"
   id="svg1"
   xmlns="http://www.w3.org/2000/svg"
   xmlns:svg="http://www.w3.org/2000/svg">
  <defs
     id="defs1" />
  <g
     id="layer1">
    <path
       d="M 14.986328,0.5 C 10.994,0.50016342 7.3788992,2.115243 4.7586498,4.7276156 2.1280403,7.3503173 0.50016434,10.978214 0.5,14.986328 c -2.6395e-4,5.948855 3.6362211,11.29321 9.1699219,13.476563 -1.1667233,1.711195 -1.8208931,3.71569 -1.8867188,5.78125 -0.082338,2.594428 0.7678079,5.133787 2.3984379,7.164062 C 5.3392298,44.351218 2.2503821,49.882185 2.0566406,55.957031 1.8302488,63.053193 5.5838259,69.546307 11.505859,72.302734 9.9654618,74.928444 9.0992912,77.961729 9,81.078125 c -0.1117297,3.500404 0.7488932,6.948347 2.466797,9.882812 -6.2787881,1.572996 -10.75220511,7.12032 -10.9589845,13.589843 -0.25507503,7.99679 6.0207895,14.68627 14.0175785,14.94141 6.114299,0.19499 11.692095,-3.4717 13.9375,-9.16211 1.711195,1.16672 3.71569,1.82089 5.78125,1.88672 2.594428,0.0823 5.133787,-0.76781 7.164062,-2.39844 2.943015,4.84241 8.473982,7.93126 14.548828,8.125 7.098579,0.21672 13.586885,-3.54808 16.332031,-9.47656 2.626575,1.55216 5.665125,2.42794 8.789063,2.5332 3.500405,0.11173 6.948347,-0.7489 9.882812,-2.4668 1.572994,6.27879 7.120318,10.75221 13.589843,10.95899 7.99679,0.25508 14.68627,-6.02079 14.94141,-14.01758 0.19001,-5.968049 -3.30115,-11.441306 -8.79297,-13.785157 1.22358,-1.738906 1.911,-3.793707 1.97851,-5.914062 0.0829,-2.594187 -0.76655,-5.13352 -2.39648,-7.164063 4.84113,-2.943209 7.92909,-8.473178 8.12305,-14.546875 0.21778,-7.098761 -3.54628,-13.587905 -9.47461,-16.333984 1.55148,-2.626796 2.42658,-5.66533 2.53125,-8.789063 0.11298,-3.545912 -0.77184,-7.036761 -2.53321,-9.99414 C 115.17917,27.192732 119.49968,21.492993 119.5,15 119.49967,6.9995566 113.01411,0.51399824 105.01367,0.51367187 99.751368,0.5132227 94.902648,3.3663791 92.347656,7.9667969 90.404419,6.3906907 87.984821,5.5313232 85.490234,5.53125 82.894567,5.5314885 80.3836,6.4619379 78.40625,8.15625 75.310069,3.4103463 69.683333,0.49970982 63.605469,0.5 56.505701,0.50052007 50.135948,4.4596977 47.570312,10.466797 44.896803,9.0101643 41.837158,8.2405272 38.71875,8.2402344 35.216594,8.2404011 31.797955,9.2107303 28.919922,11.021484 27.147914,4.7950549 21.46,0.50001831 14.986328,0.5 Z"
       style="fill:#fd0000;fill-opacity:0;stroke:#ff0000;stroke-opacity:1"
       id="path4" />
  </g>
</svg>
